Coordinates
version=1
nRows=5
nColumns=63
inDegrees=yes

Units are S.I. units (second, meters, Newtons, ...)
If the header above contains a line with 'inDegrees', this indicates whether rotational values are in degrees (yes) or radians (no).

endheader
time	pelvis_tilt	pelvis_list	pelvis_rotation	pelvis_tx	pelvis_ty	pelvis_tz	hip_flexion_r	hip_adduction_r	hip_rotation_r	knee_angle_r	knee_angle_r_beta	ankle_angle_r	subtalar_angle_r	mtp_angle_r	hip_flexion_l	hip_adduction_l	hip_rotation_l	knee_angle_l	knee_angle_l_beta	ankle_angle_l	subtalar_angle_l	mtp_angle_l	L5_S1_Flex_Ext	L5_S1_Lat_Bending	L5_S1_axial_rotation	L4_L5_Flex_Ext	L4_L5_Lat_Bending	L4_L5_axial_rotation	L3_L4_Flex_Ext	L3_L4_Lat_Bending	L3_L4_axial_rotation	L2_L3_Flex_Ext	L2_L3_Lat_Bending	L2_L3_axial_rotation	L1_L2_Flex_Ext	L1_L2_Lat_Bending	L1_L2_axial_rotation	L1_T12_Flex_Ext	L1_T12_Lat_Bending	L1_T12_axial_rotation	Abs_r3	Abs_r2	Abs_r1	Abs_t1	Abs_t2	neck_flexion	neck_bending	neck_rotation	arm_flex_r	arm_add_r	arm_rot_r	elbow_flex_r	pro_sup_r	wrist_flex_r	wrist_dev_r	arm_flex_l	arm_add_l	arm_rot_l	elbow_flex_l	pro_sup_l	wrist_flex_l	wrist_dev_l
      6.84745763	     -6.92464512	    -18.36157978	     88.10870061	      0.21550254	      1.01577654	      0.47321308	     19.01566758	     -7.46825522	    -18.10954970	     16.50486818	      0.28806429	     27.84033335	      5.49123391	      0.00000000	     18.52123670	      2.48842118	    -20.01690648	     12.44127839	      0.21714127	     24.75371837	     11.94032160	      0.00000000	     -0.02943864	     -0.67784224	     -0.32046571	     -0.05467049	     -0.90153017	     -0.34049482	     -0.04836473	     -1.64810561	     -0.34049482	     -0.03364542	     -1.64810561	     -0.28040750	     -0.02733672	     -1.38225589	     -0.26037839	     -0.01682124	     -1.04997762	     -0.24034928	     -0.21027723	     -7.66788695	     -1.78233415	      0.00000000	      0.00000000	     22.60812173	      8.80896298	     -6.82397584	     34.69911990	    -14.11981402	     58.67834346	     10.89387126	      4.31467200	     -9.69865020	     -5.60848834	     22.50268857	    -12.19883252	     -0.91547207	     30.39554826	     80.40154749	    -10.22152424	      2.09346124
      6.86440678	     -7.07231909	    -18.59408419	     88.38710805	      0.21526786	      1.01563858	      0.47487985	     19.43800759	     -7.74171479	    -17.93351140	     16.84133892	      0.29393681	     27.87646139	      5.20395887	      0.00000000	     19.00821417	      2.62012161	    -20.15116230	     12.81693473	      0.22369771	     24.68596709	     11.87799448	      0.00000000	     -0.02091260	     -0.70280783	     -0.41516770	     -0.03883679	     -0.93473442	     -0.44111568	     -0.03435731	     -1.70880696	     -0.44111568	     -0.02390101	     -1.70880696	     -0.36327174	     -0.01941944	     -1.43316573	     -0.33732376	     -0.01194946	     -1.08864933	     -0.31137577	     -0.14937662	     -7.95030275	     -2.30903819	      0.00000000	      0.00000000	     22.91348827	      8.77566263	     -7.37784230	     35.02916553	    -13.98436094	     58.61801839	     10.86376984	      4.47154493	     -9.58138796	     -6.07040125	     22.91232503	    -12.45809686	     -1.55825634	     30.77164527	     80.04377438	    -10.22768511	      2.33668959
      6.88135593	     -7.22077165	    -18.87618412	     88.74934306	      0.21493624	      1.01535331	      0.47663408	     19.91139623	     -8.02966639	    -17.64562977	     17.20816131	      0.30033907	     27.96800045	      4.72004889	      0.00000000	     19.56145527	      2.77562330	    -20.24115799	     13.19581434	      0.23031041	     24.77896493	     11.99682997	      0.00000000	     -0.00056407	     -0.72852168	     -0.52093248	     -0.00104753	     -0.96893384	     -0.55349076	     -0.00092671	     -1.77132762	     -0.55349076	     -0.00064467	     -1.77132762	     -0.45581592	     -0.00052379	     -1.48560142	     -0.42325764	     -0.00032231	     -1.12848009	     -0.39069936	     -0.00402909	     -8.24118299	     -2.89727015	      0.00000000	      0.00000000	     23.05479854	      8.55523181	     -8.31989932	     35.32773050	    -13.85899124	     58.59288304	     10.81008693	      4.59625698	     -9.33830103	     -6.56399626	     23.29800555	    -12.74413944	     -2.15403490	     31.14825203	     79.82336818	    -10.03493148	      2.75118872
      6.89830508	     -7.30776146	    -19.16484491	     89.11534491	      0.21464407	      1.01500653	      0.47831845	     20.35343843	     -8.21660723	    -17.15014172	     17.49700503	      0.30538035	     27.98436169	      3.97936233	      0.00000000	     20.09947131	      2.87237628	    -20.39650854	     13.53313876	      0.23619783	     25.00082620	     12.35319182	      0.00000000	      0.02545330	     -0.74723046	     -0.60350873	      0.04726933	     -0.99381651	     -0.64122803	      0.04181723	     -1.81681614	     -0.64122803	      0.02909058	     -1.81681614	     -0.52807014	      0.02363594	     -1.52375235	     -0.49035085	      0.01454402	     -1.15745998	     -0.45263155	      0.18181041	     -8.45282040	     -3.35653453	      0.00000000	      0.00000000	     23.04202796	      8.09337350	     -9.60644088	     35.59159475	    -13.82278301	     58.54195421	     10.73713365	      4.59946995	     -9.00340059	     -6.96548090	     23.66792756	    -12.95449256	     -2.65915949	     31.45482671	     79.88654719	     -9.72658869	      3.39189953
      6.91525424	     -7.44990034	    -19.40154716	     89.20893906	      0.21462388	      1.01470214	      0.47981627	     20.76465908	     -8.30409937	    -15.95496842	     17.70139745	      0.30894767	     27.88601421	      2.79925604	      0.00000000	     20.51042123	      2.92288313	    -21.08303175	     13.76413934	      0.24022955	     25.25383088	     13.29940389	      0.00000000	      0.04990540	     -0.77143147	     -0.60707080	      0.09267932	     -1.02600385	     -0.64501272	      0.08198958	     -1.87565847	     -0.64501272	      0.05703688	     -1.87565847	     -0.53118695	      0.04634215	     -1.57310305	     -0.49324502	      0.02851594	     -1.19494734	     -0.45530310	      0.35646927	     -8.72658704	     -3.37634566	      0.00000000	      0.00000000	     22.84621376	      7.57630847	    -11.14509443	     35.79655170	    -13.90668013	     58.27378693	     10.69708803	      4.49180961	     -8.67224278	     -7.21623306	     24.09853353	    -12.91096194	     -3.44279410	     31.54679382	     80.75220925	     -9.40756636	      4.26068634
